<svg xmlns="http://www.w3.org/2000/svg" viewBox="0 0 512 512">
  <rect width="512" height="512" rx="112" fill="#F0FDF4"/>
  <g transform="translate(64, 64) scale(16)" fill="none" stroke-linecap="round" stroke-linejoin="round">
    <!-- Left Hemisphere -->
    <path d="M12 5a3 3 0 1 0-5.997.125 4 4 0 0 0-2.526 5.77 4 4 0 0 0 .556 6.588A4 4 0 1 0 12 18Z" stroke="#7C3AED" stroke-width="2"/>
    <!-- Right Hemisphere -->
    <path d="M12 5a3 3 0 1 1 5.997.125 4 4 0 0 1 2.526 5.77 4 4 0 0 1-.556 6.588A4 4 0 1 1 12 18Z" stroke="#7C3AED" stroke-width="2"/>
    <!-- Inner Folds -->
    <path d="M15 13a4.5 4.5 0 0 1-3-4 4.5 4.5 0 0 1-3 4" stroke="#10B981" stroke-width="2"/>
    <path d="M17.599 6.5a3 3 0 0 0 .399-1.375" stroke="#10B981" stroke-width="2"/>
    <path d="M6.003 5.125A3 3 0 0 0 6.401 6.5" stroke="#10B981" stroke-width="2"/>
    <path d="M3.477 10.896a4 4 0 0 1 .585-.396" stroke="#10B981" stroke-width="2"/>
    <path d="M19.938 10.5a4 4 0 0 1 .585.396" stroke="#10B981" stroke-width="2"/>
    <path d="M6 18a4 4 0 0 1-1.967-.516" stroke="#10B981" stroke-width="2"/>
    <path d="M19.967 17.484A4 4 0 0 1 18 18" stroke="#10B981" stroke-width="2"/>
  </g>
</svg>