<svg xmlns="http://www.w3.org/2000/svg" viewBox="0 0 512 512">
  <rect width="512" height="512" rx="112" fill="#F0FDF4"/>
  <g transform="translate(64, 64) scale(16)" fill="none" stroke-linecap="round" stroke-linejoin="round">
    <!-- Left Hemisphere -->
    <path d="M12 5a3 3 0 1 0-5.997.125 4 4 0 0 0-2.526 5.77 4 4 0 0 0 .556 6.588A4 4 0 1 0 12 18Z" stroke="#7C3AED" stroke-width="2"/>
    <!-- Right Hemisphere -->
    <path d="M12 5a3 3 0 1 1 5.997.125 4 4 0 0 1 2.526 5.77 4 4 0 0 1-.556 6.588A4 4 0 1 1 12 18Z" stroke="#7C3AED" stroke-width="2"/>
  </g>
</svg>